# xmcd CD database file
#
# Track frame offsets:
#	150
#	23581
#	38731
#	51517
#	68650
#
# Disc length: 1094 seconds
#
# Revision: 0
# Processed by: cddbd v1.5.1PL0 Copyright (c) Steve Scherf et al.
# Submitted via: CDex 1.51
#
DISCID=39044405
DTITLE=SHUUBI - SET ME FREE
DYEAR=2004
DGENRE=JPop
TTITLE0=かぞえうた
TTITLE1=ママ
TTITLE2=秘密の蜜
TTITLE3=風と星と月と雨
TTITLE4=全国21 〜京都ReMix21
EXTD=YEAR: 2004/06/16
EXTT0=
EXTT1=
EXTT2=
EXTT3=
EXTT4=
PLAYORDER=
